<svg width="134" height="134" viewBox="0 0 134 134" fill="none" xmlns="http://www.w3.org/2000/svg">
<g clip-path="url(#clip0_3_12)">
<path d="M67 129.533C101.536 129.533 129.533 101.536 129.533 67C129.533 32.4638 101.536 4.46667 67 4.46667C32.4638 4.46667 4.46667 32.4638 4.46667 67C4.46667 101.536 32.4638 129.533 67 129.533Z" fill="black"/>
<path d="M67 77.05C81.1845 77.05 92.6833 65.5512 92.6833 51.3667C92.6833 37.1822 81.1845 25.6833 67 25.6833C52.8155 25.6833 41.3167 37.1822 41.3167 51.3667C41.3167 65.5512 52.8155 77.05 67 77.05Z" fill="white"/>
<path d="M67 168.617C92.2854 168.617 112.783 148.119 112.783 122.833C112.783 97.5479 92.2854 77.05 67 77.05C41.7146 77.05 21.2167 97.5479 21.2167 122.833C21.2167 148.119 41.7146 168.617 67 168.617Z" fill="white"/>
</g>
<defs>
<clipPath id="clip0_3_12">
<rect width="134" height="134" fill="white"/>
</clipPath>
</defs>
</svg>
