<svg width="111" height="139" viewBox="0 0 111 139" fill="none" xmlns="http://www.w3.org/2000/svg">
<path d="M61.953 3.021L54 0.500999L46.047 3.024C45.423 3.219 45 3.798 45 4.452V13.5C45 14.523 46.002 15.246 46.974 14.922L54 12.579L61.026 14.922C61.998 15.246 63 14.523 63 13.5V4.452C63 3.798 62.577 3.219 61.953 3.021ZM108 117.249V46.527L110.163 42.672C110.607 41.883 110.253 40.884 109.413 40.545L98.016 36.363C97.038 36.006 96 36.732 96 37.773V102C96 103.65 94.65 105 93 105C91.35 105 90 103.65 90 102V34.47C90 33.84 89.607 33.279 89.016 33.063L80.016 29.76C79.038 29.403 78 30.126 78 31.17V108C78 109.65 76.65 111 75 111C73.35 111 72 109.65 72 108V27.867C72 27.237 71.607 26.676 71.016 26.46L65.454 24.42C61.518 22.881 57.267 25.782 57.267 30.009V132C57.267 136.128 61.338 139.023 65.238 137.667L109.311 123.285C110.19 122.982 110.586 121.959 110.136 121.143L108 117.249ZM42.813 24.417L1.58699 40.548C0.746991 40.884 0.392991 41.886 0.836991 42.675L2.99999 46.527V117.249L0.860992 121.143C0.410992 121.959 0.806991 122.982 1.68599 123.285L43.026 137.667C46.929 139.023 51 136.128 51 132V30.006C51 25.779 46.749 22.878 42.813 24.417ZM30 105.366C30 107.871 28.83 110.1 26.868 111.33C26.28 111.699 25.269 112.179 24 112.188V52.809C25.248 52.821 26.244 53.286 26.829 53.646C28.815 54.87 30 57.108 30 59.634V105.366Z" fill="black"/>
</svg>
